G04 EAGLE Gerber RS-274X export*
G75*
%MOMM*%
%FSLAX34Y34*%
%LPD*%
%INBottom Copper*%
%IPPOS*%
%AMOC8*
5,1,8,0,0,1.08239X$1,22.5*%
G01*
G04 Define Apertures*
%ADD10C,1.600000*%
%ADD11C,1.802800*%
%ADD12R,1.802800X1.802800*%
%ADD13C,1.612800*%
%ADD14C,1.828800*%
%ADD15C,1.828800*%
%ADD16R,1.828800X1.828800*%
%ADD17C,1.930400*%
%ADD18C,0.660400*%
%ADD19C,1.162800*%
D10*
X382800Y535300D03*
X382800Y515300D03*
X382800Y495300D03*
X382800Y475300D03*
X382800Y455300D03*
D11*
X578600Y174900D03*
X578600Y129900D03*
X513600Y174900D03*
D12*
X513600Y129900D03*
D11*
X412000Y129900D03*
X412000Y174900D03*
X477000Y129900D03*
D12*
X477000Y174900D03*
D13*
X632700Y409900D03*
X632700Y384500D03*
X632700Y359100D03*
X632700Y333700D03*
D14*
X491744Y520700D02*
X473456Y520700D01*
X473456Y495300D02*
X491744Y495300D01*
D15*
X330200Y165100D03*
D16*
X330200Y190500D03*
D15*
X330200Y139700D03*
X330200Y114300D03*
D17*
X-56388Y475488D03*
X-56388Y450088D03*
X-56388Y424688D03*
X-56388Y399288D03*
X-56388Y373888D03*
X-56388Y348488D03*
X-56388Y323088D03*
X-56388Y297688D03*
X-56388Y272288D03*
X-56388Y246888D03*
X-56388Y221488D03*
X-56388Y196088D03*
X-56388Y170688D03*
X-56388Y145288D03*
X-56388Y119888D03*
X197612Y475488D03*
X197612Y450088D03*
X197612Y424688D03*
X197612Y399288D03*
X197612Y373888D03*
X197612Y348488D03*
X197612Y323088D03*
X197612Y297688D03*
X197612Y272288D03*
X197612Y246888D03*
X197612Y221488D03*
X197612Y196088D03*
X197612Y170688D03*
X197612Y145288D03*
X197612Y119888D03*
D11*
X462800Y57274D03*
X462800Y102274D03*
X527800Y57274D03*
D12*
X527800Y102274D03*
D11*
X462800Y208676D03*
X462800Y253676D03*
X527800Y208676D03*
D12*
X527800Y253676D03*
D18*
X254000Y234950D02*
X254000Y304800D01*
X254000Y234950D02*
X323850Y165100D01*
X330200Y165100D01*
D19*
X254000Y304800D03*
D18*
X234950Y539750D02*
X-38100Y266700D01*
X-38100Y263525D01*
X-53975Y247650D01*
X-56388Y246888D01*
D19*
X234950Y539750D03*
D18*
X200025Y527050D02*
X-53975Y273050D01*
X-56388Y272288D01*
D19*
X200025Y527050D03*
D18*
X479425Y174625D02*
X479425Y130175D01*
X477000Y129900D01*
X479425Y174625D02*
X477000Y174900D01*
X530225Y307975D02*
X631825Y409575D01*
X530225Y307975D02*
X530225Y254000D01*
X631825Y409575D02*
X632700Y409900D01*
X530225Y254000D02*
X527800Y253676D01*
X238125Y165100D02*
X238125Y438150D01*
X200025Y476250D01*
X197612Y475488D01*
X447675Y495300D02*
X482600Y495300D01*
X447675Y495300D02*
X390525Y438150D01*
X238125Y438150D01*
D19*
X238125Y165100D03*
D18*
X631825Y136525D02*
X631825Y333375D01*
X631825Y136525D02*
X533400Y38100D01*
X130175Y38100D01*
X-53975Y222250D01*
X631825Y333375D02*
X632700Y333700D01*
X-53975Y222250D02*
X-56388Y221488D01*
X193675Y320675D02*
X196850Y320675D01*
X193675Y320675D02*
X177800Y304800D01*
X177800Y111125D01*
X206375Y82550D01*
X539750Y82550D01*
X577850Y120650D01*
X577850Y127000D01*
X196850Y320675D02*
X197612Y323088D01*
X578600Y129900D02*
X577850Y127000D01*
X409575Y177800D02*
X295275Y292100D01*
X409575Y177800D02*
X412000Y174900D01*
D19*
X295275Y292100D03*
D18*
X203200Y269875D02*
X200025Y269875D01*
X203200Y269875D02*
X225425Y247650D01*
X225425Y158750D01*
X288925Y95250D01*
X454025Y95250D01*
X460375Y101600D01*
X200025Y269875D02*
X197612Y272288D01*
X460375Y101600D02*
X462800Y102274D01*
X460375Y254000D02*
X346075Y368300D01*
X460375Y254000D02*
X462800Y253676D01*
D19*
X346075Y368300D03*
M02*
