M48
;GenerationSoftware,Autodesk,EAGLE,9.7.0*%
;CreationDate,2021-11-18T14:08:24Z*%
FMAT,2
ICI,OFF
METRIC,TZ,000.000
T8C0.350
T7C0.700
T6C0.800
T5C0.990
T4C1.000
T3C1.016
T2C3.300
%
G90
M71
T2
X62230Y2540
X-11430Y3810
X-11430Y52070
X62230Y53340
T3
X48260Y49530
X33020Y16510
X33020Y19050
X33020Y13970
X33020Y11430
X48260Y52070
T4
X-5639Y29769
X-5639Y27229
X-5639Y24689
X-5639Y22149
X-5639Y19609
X-5639Y42469
X-5639Y17069
X-5639Y14529
X-5639Y11989
X19761Y47549
X19761Y45009
X19761Y42469
X19761Y39929
X19761Y37389
X19761Y34849
X19761Y32309
X19761Y29769
X19761Y27229
X19761Y24689
X19761Y22149
X19761Y19609
X19761Y17069
X19761Y14529
X-5639Y47549
X-5639Y45009
X19761Y11989
X-5639Y39929
X-5639Y37389
X-5639Y34849
X-5639Y32309
T5
X57860Y17490
X51360Y17490
X51360Y12990
X41200Y12990
X41200Y17490
X47700Y12990
X47700Y17490
X57860Y12990
X46280Y5727
X46280Y10227
X52780Y5727
X52780Y10227
X46280Y20868
X46280Y25368
X52780Y20868
X52780Y25368
T6
X63270Y40990
X63270Y38450
X63270Y35910
X63270Y33370
T7
X38280Y53530
X38280Y51530
X38280Y49530
X38280Y47530
X38280Y45530
T8
X23495Y53975
X20003Y52705
X23812Y16510
X29527Y29210
X34608Y36830
X25400Y30480
M30