G04 EAGLE Gerber RS-274X export*
G75*
%MOMM*%
%FSLAX34Y34*%
%LPD*%
%INSoldermask Top*%
%IPPOS*%
%AMOC8*
5,1,8,0,0,1.08239X$1,22.5*%
G01*
G04 Define Apertures*
%ADD10R,1.367800X1.668500*%
%ADD11C,1.803200*%
%ADD12R,1.367800X2.018500*%
%ADD13C,2.006000*%
%ADD14R,2.006000X2.006000*%
%ADD15C,1.816000*%
%ADD16C,2.032000*%
%ADD17C,2.032000*%
%ADD18R,2.032000X2.032000*%
%ADD19R,2.235200X0.863600*%
%ADD20C,2.133600*%
%ADD21C,3.503200*%
%ADD22C,1.366000*%
D10*
X237792Y126975D03*
X255300Y126975D03*
D11*
X382800Y535300D03*
X382800Y515300D03*
X382800Y495300D03*
X382800Y475300D03*
X382800Y455300D03*
D12*
X268754Y190500D03*
X239246Y190500D03*
D13*
X578600Y174900D03*
X578600Y129900D03*
X513600Y174900D03*
D14*
X513600Y129900D03*
D13*
X412000Y129900D03*
X412000Y174900D03*
X477000Y129900D03*
D14*
X477000Y174900D03*
D15*
X632700Y409900D03*
X632700Y384500D03*
X632700Y359100D03*
X632700Y333700D03*
D16*
X491744Y520700D02*
X473456Y520700D01*
X473456Y495300D02*
X491744Y495300D01*
D17*
X330200Y165100D03*
D18*
X330200Y190500D03*
D17*
X330200Y139700D03*
X330200Y114300D03*
D19*
X261366Y539750D03*
X322834Y539750D03*
X261366Y527050D03*
X261366Y514350D03*
X322834Y527050D03*
X322834Y514350D03*
X261366Y501650D03*
X322834Y501650D03*
X261366Y488950D03*
X322834Y488950D03*
X261366Y476250D03*
X261366Y463550D03*
X322834Y476250D03*
X322834Y463550D03*
X261366Y450850D03*
X322834Y450850D03*
D20*
X-56388Y475488D03*
X-56388Y450088D03*
X-56388Y424688D03*
X-56388Y399288D03*
X-56388Y373888D03*
X-56388Y348488D03*
X-56388Y323088D03*
X-56388Y297688D03*
X-56388Y272288D03*
X-56388Y246888D03*
X-56388Y221488D03*
X-56388Y196088D03*
X-56388Y170688D03*
X-56388Y145288D03*
X-56388Y119888D03*
X197612Y475488D03*
X197612Y450088D03*
X197612Y424688D03*
X197612Y399288D03*
X197612Y373888D03*
X197612Y348488D03*
X197612Y323088D03*
X197612Y297688D03*
X197612Y272288D03*
X197612Y246888D03*
X197612Y221488D03*
X197612Y196088D03*
X197612Y170688D03*
X197612Y145288D03*
X197612Y119888D03*
D21*
X-114300Y38100D03*
X-114300Y520700D03*
X622300Y25400D03*
X622300Y533400D03*
D13*
X462800Y57274D03*
X462800Y102274D03*
X527800Y57274D03*
D14*
X527800Y102274D03*
D13*
X462800Y208676D03*
X462800Y253676D03*
X527800Y208676D03*
D14*
X527800Y253676D03*
D22*
X254000Y304800D03*
X234950Y539750D03*
X200025Y527050D03*
X238125Y165100D03*
X295275Y292100D03*
X346075Y368300D03*
M02*
